name rise30.9205peak61.366fall85.3838.mot
datacolumns 19
datarows 12
range 4.60665100000000 4.62498100000000
endheader
time	ground_force1_vx	ground_force1_vy	ground_force1_vz	ground_force1_px	ground_force1_py	ground_force1_pz	ground_force2_vx	ground_force2_vy	ground_force2_vz	ground_force2_px	ground_force2_py	ground_force2_pz	ground_torque1_x	ground_torque1_y	ground_torque1_z	ground_torque2_x	ground_torque2_y	ground_torque2_z	
4.60665100000000	12.70312000000000	690.65084800000000	40.98963200000000	0.26197200000000	0.00000000000000	0.10874500000000	0.00000000000000	0.00000000000000	0.00000000000000	0.00000000000000	0.00000000000000	0.00000000000000	0.00000000000000	18.67995600000000	0.00000000000000	0.00000000000000	0.00000000000000	0.00000000000000	
4.60832400000000	12.27322900000000	691.35792400000003	41.05015100000000	0.26117000000000	0.00000000000000	0.10872400000000	0.00000000000000	0.00000000000000	0.00000000000000	0.00000000000000	0.00000000000000	0.00000000000000	0.00000000000000	18.79623100000000	0.00000000000000	0.00000000000000	0.00000000000000	0.00000000000000	
4.60998600000000	11.83586900000000	692.13335900000004	41.11118700000000	0.26035300000000	0.00000000000000	0.10870300000000	0.00000000000000	0.00000000000000	0.00000000000000	0.00000000000000	0.00000000000000	0.00000000000000	0.00000000000000	18.91394200000000	0.00000000000000	0.00000000000000	0.00000000000000	0.00000000000000	
4.61165500000000	11.39107500000000	692.97718399999997	41.17272400000000	0.25951900000000	0.00000000000000	0.10868200000000	0.00000000000000	0.00000000000000	0.00000000000000	0.00000000000000	0.00000000000000	0.00000000000000	0.00000000000000	19.03294700000000	0.00000000000000	0.00000000000000	0.00000000000000	0.00000000000000	
4.61332000000000	10.93890000000000	693.88937999999996	41.23476900000000	0.25866900000000	0.00000000000000	0.10866100000000	0.00000000000000	0.00000000000000	0.00000000000000	0.00000000000000	0.00000000000000	0.00000000000000	0.00000000000000	19.15311700000000	0.00000000000000	0.00000000000000	0.00000000000000	0.00000000000000	
4.61498500000000	10.47941900000000	694.86987499999998	41.29735200000000	0.25780300000000	0.00000000000000	0.10864000000000	0.00000000000000	0.00000000000000	0.00000000000000	0.00000000000000	0.00000000000000	0.00000000000000	0.00000000000000	19.27433200000000	0.00000000000000	0.00000000000000	0.00000000000000	0.00000000000000	
4.61665200000000	10.01272800000000	695.91854699999999	41.36052100000000	0.25691900000000	0.00000000000000	0.10861900000000	0.00000000000000	0.00000000000000	0.00000000000000	0.00000000000000	0.00000000000000	0.00000000000000	0.00000000000000	19.39648200000000	0.00000000000000	0.00000000000000	0.00000000000000	0.00000000000000	
4.61831400000000	9.53894300000000	697.03521200000000	41.42434700000000	0.25601800000000	0.00000000000000	0.10859800000000	0.00000000000000	0.00000000000000	0.00000000000000	0.00000000000000	0.00000000000000	0.00000000000000	0.00000000000000	19.51946900000000	0.00000000000000	0.00000000000000	0.00000000000000	0.00000000000000	
4.61998000000000	9.05820300000000	698.21962699999995	41.48892000000000	0.25510000000000	0.00000000000000	0.10857700000000	0.00000000000000	0.00000000000000	0.00000000000000	0.00000000000000	0.00000000000000	0.00000000000000	0.00000000000000	19.64320200000000	0.00000000000000	0.00000000000000	0.00000000000000	0.00000000000000	
4.62164900000000	8.57066700000000	699.47148500000003	41.55434900000000	0.25416400000000	0.00000000000000	0.10855700000000	0.00000000000000	0.00000000000000	0.00000000000000	0.00000000000000	0.00000000000000	0.00000000000000	0.00000000000000	19.76760100000000	0.00000000000000	0.00000000000000	0.00000000000000	0.00000000000000	
4.62332100000000	8.07651600000000	700.79040999999995	41.62076400000000	0.25321200000000	0.00000000000000	0.10853600000000	0.00000000000000	0.00000000000000	0.00000000000000	0.00000000000000	0.00000000000000	0.00000000000000	0.00000000000000	19.89259600000000	0.00000000000000	0.00000000000000	0.00000000000000	0.00000000000000	
4.62498100000000	7.57595400000000	702.17595600000004	41.68830900000000	0.25224300000000	0.00000000000000	0.10851500000000	0.00000000000000	0.00000000000000	0.00000000000000	0.00000000000000	0.00000000000000	0.00000000000000	0.00000000000000	20.01812400000000	0.00000000000000	0.00000000000000	0.00000000000000	0.00000000000000	
